HIERARCHY
ROOT reference
{
  OFFSET 0 0 0
  CHANNELS 6 Xposition Yposition Zposition Zrotation Xrotation Yrotation
  JOINT Hips
  {
    OFFSET 18.4844 82.1181 111.677
    CHANNELS 6 Xposition Yposition Zposition Zrotation Xrotation Yrotation
    JOINT Spine
    {
      OFFSET 0 7.59534 0
      CHANNELS 6 Xposition Yposition Zposition Zrotation Xrotation Yrotation
      JOINT Spine1
      {
        OFFSET 0 23.5015 0
        CHANNELS 6 Xposition Yposition Zposition Zrotation Xrotation Yrotation
        JOINT Neck
        {
          OFFSET 0 23.405 2.12773
          CHANNELS 6 Xposition Yposition Zposition Zrotation Xrotation Yrotation
          JOINT Head
          {
            OFFSET 0 12.9677 -1.85252
            CHANNELS 6 Xposition Yposition Zposition Zrotation Xrotation Yrotation
            End Site
            {
              OFFSET 0 23.1565 0
            }
          }
        }
        JOINT LeftShoulder
        {
          OFFSET 3.62206 22.4732 -0.132728
          CHANNELS 6 Xposition Yposition Zposition Zrotation Xrotation Yrotation
          JOINT LeftArm
          {
            OFFSET 8.17784 0 0
            CHANNELS 6 Xposition Yposition Zposition Zrotation Xrotation Yrotation
            JOINT LeftForeArm
            {
              OFFSET 30.104 0 0
              CHANNELS 6 Xposition Yposition Zposition Zrotation Xrotation Yrotation
              JOINT LeftHand
              {
                OFFSET 24.4664 0 0
                CHANNELS 6 Xposition Yposition Zposition Zrotation Xrotation Yrotation
                End Site
                {
                  OFFSET 13.8939 0 0
                }
              }
            }
          }
        }
        JOINT RightShoulder
        {
          OFFSET -3.6336 22.4732 -0.132728
          CHANNELS 6 Xposition Yposition Zposition Zrotation Xrotation Yrotation
          JOINT RightArm
          {
            OFFSET -8.17784 0 0
            CHANNELS 6 Xposition Yposition Zposition Zrotation Xrotation Yrotation
            JOINT RightForeArm
            {
              OFFSET -30.104 0 0
              CHANNELS 6 Xposition Yposition Zposition Zrotation Xrotation Yrotation
              JOINT RightHand
              {
                OFFSET -24.4664 0 0
                CHANNELS 6 Xposition Yposition Zposition Zrotation Xrotation Yrotation
                End Site
                {
                  OFFSET -13.8939 0 0
                }
              }
            }
          }
        }
      }
    }
    JOINT LeftUpLeg
    {
      OFFSET 9.26261 0 0
      CHANNELS 6 Xposition Yposition Zposition Zrotation Xrotation Yrotation
      JOINT LeftLeg
      {
        OFFSET 0 -35.4897 0
        CHANNELS 6 Xposition Yposition Zposition Zrotation Xrotation Yrotation
        JOINT LeftFoot
        {
          OFFSET 0 -38.2023 0
          CHANNELS 6 Xposition Yposition Zposition Zrotation Xrotation Yrotation
          JOINT LeftToeBase
          {
            OFFSET 0 -6.0207 13.8939
            CHANNELS 6 Xposition Yposition Zposition Zrotation Xrotation Yrotation
            End Site
            {
              OFFSET 0 0 3.70504
            }
          }
        }
      }
    }
    JOINT RightUpLeg
    {
      OFFSET -9.26261 0 0
      CHANNELS 6 Xposition Yposition Zposition Zrotation Xrotation Yrotation
      JOINT RightLeg
      {
        OFFSET 0 -35.4897 0
        CHANNELS 6 Xposition Yposition Zposition Zrotation Xrotation Yrotation
        JOINT RightFoot
        {
          OFFSET 0 -38.2023 0
          CHANNELS 6 Xposition Yposition Zposition Zrotation Xrotation Yrotation
          JOINT RightToeBase
          {
            OFFSET 0 -6.0207 13.8939
            CHANNELS 6 Xposition Yposition Zposition Zrotation Xrotation Yrotation
            End Site
            {
              OFFSET 0 0 3.70504
            }
          }
        }
      }
    }
  }
}
MOTION
Frames:	8
Frame Time:	0.004
0 0 0 0 0 -0 -5.71562 76.0112 -194.897 0.26641 -1.256 -3.14068 -1.77636e-015 7.59534 0 0.0650524 -5.36961 0.235388 0 23.5015 -2.84217e-014 1.35244 -0.390094 0.231898 0 23.405 2.12773 -3.54211 26.0843 -3.36714 0 12.9677 -1.85252 1.22465 -1.20191 -3.65697 3.62206 22.4732 -0.132728 14.0593 2.04806 14.1825 8.17784 0 0 -18.6941 1.50843 -3.81596 30.104 0 0 0.983315 1.15583 1.46436 24.4664 -2.84217e-014 2.84217e-014 3.03856 1.11084 -1.22434 -3.6336 22.4732 -0.132728 -10.4297 -0.739634 18.4892 -8.17784 0 0 15.5419 -0.331668 -4.37232 -30.104 2.84217e-014 0 -1.29259 0.023255 -0.548011 -24.4664 -2.84217e-014 0 -1.6422 0.012047 0.526617 9.26261 -1.42109e-014 -2.84217e-014 1.67473 13.252 -1.06037 0 -35.4897 0 -0.704371 -7.67236 -0.0896785 0 -38.2023 0 2.415 -2.86834 14.1066 0 -6.0207 13.8939 7.45443e-016 -1.98785e-016 -0 -9.26261 0 0 -3.81472 3.85781 -0.165059 0 -35.4897 0 -1.02746 4.64487 -4.83131 0 -38.2023 0 2.54448 -5.68698 4.02631 0 -6.0207 13.8939 1.11816e-015 3.97569e-016 7.95139e-016 
0 0 0 0 0 -0 -5.71562 76.0112 -194.897 0.26641 -1.256 -3.14068 -1.77636e-015 7.59534 0 0.0650524 -5.36961 0.235388 0 23.5015 -2.84217e-014 1.36068 -0.384536 0.231898 0 23.405 2.12773 -3.54211 26.0843 -3.36714 7.10543e-015 12.9677 -1.85252 1.20168 -1.19582 -3.65696 3.62206 22.4732 -0.132728 14.0409 2.04806 14.1825 8.17784 0 0 -18.6965 1.47603 -3.80426 30.104 0 0 0.893591 1.02817 1.41213 24.4664 -2.84217e-014 0 3.44162 0.981518 -1.18633 -3.6336 22.4732 -0.132728 -10.426 -0.744005 18.476 -8.17784 0 0 15.5421 -0.32987 -4.37231 -30.104 2.84217e-014 0 -1.30234 0.023255 -0.548011 -24.4664 0 0 -1.68716 0.012047 0.511442 9.26261 -1.42109e-014 -2.84217e-014 1.67625 13.252 -1.06701 0 -35.4897 0 -0.705716 -7.67236 -0.0846571 1.77636e-015 -38.2023 0 2.42854 -2.85533 14.111 -7.10543e-015 -6.0207 13.8939 -1.06847e-015 0 -0 -9.26261 0 0 -3.81519 3.85781 -0.158095 0 -35.4897 -2.84217e-014 -1.02438 4.66201 -4.85136 0 -38.2023 -2.84217e-014 2.51759 -5.70749 4.03438 7.10543e-015 -6.0207 13.8939 -4.96962e-017 0 7.95139e-016 
0 0 0 0 0 -0 -5.71562 76.0112 -194.897 0.26641 -1.256 -3.14068 -1.77636e-015 7.59534 0 0.0618053 -5.36961 0.235388 1.77636e-015 23.5015 2.84217e-014 1.36485 -0.37414 0.231898 0 23.405 2.12773 -3.54637 26.095 -3.36744 7.10543e-015 12.9677 -1.85252 1.21502 -1.21543 -3.65699 3.62206 22.4732 -0.132728 14.0494 2.04194 14.1824 8.17784 2.84217e-014 2.84217e-014 -18.6962 1.48457 -3.79611 30.104 0 -2.84217e-014 0.917053 1.01687 1.41432 24.4664 0 0 3.33379 0.969886 -1.22876 -3.6336 22.4732 -0.132728 -10.4233 -0.730085 18.4689 -8.17784 2.84217e-014 -2.84217e-014 15.5411 -0.342174 -4.37232 -30.104 2.84217e-014 0 -1.30066 0.020114 -0.548011 -24.4664 -2.84217e-014 0 -1.73177 0.010627 0.503707 9.26261 -1.42109e-014 -2.84217e-014 1.67782 13.252 -1.07386 0 -35.4897 0 -0.706039 -7.67237 -0.0258063 0 -38.2023 2.84217e-014 2.42723 -2.86585 14.0806 7.10543e-015 -6.0207 13.8939 6.21202e-016 1.98785e-016 3.18055e-015 -9.26261 0 0 -3.82106 3.87418 -0.070541 0 -35.4897 0 -1.01771 4.63819 -4.95796 0 -38.2023 0 2.50427 -5.66174 4.04483 0 -6.0207 13.8939 -7.45443e-017 0 -0 
0 0 0 0 0 -0 -5.71562 76.0112 -194.897 0.26641 -1.256 -3.14068 -1.77636e-015 7.59534 0 0.0520364 -5.36936 0.235388 -1.77636e-015 23.5015 -2.84217e-014 1.38705 -0.372781 0.232991 0 23.405 2.12773 -3.56132 26.1016 -3.36763 0 12.9677 -1.85252 1.21785 -1.23359 -3.65684 3.62206 22.4732 -0.132728 14.0531 2.0257 14.1823 8.17784 0 2.84217e-014 -18.6979 1.465 -3.78053 30.104 0 -2.84217e-014 0.887779 1.00949 1.41484 24.4664 0 0 3.35525 0.962006 -1.25095 -3.6336 22.4732 -0.132728 -10.4412 -0.737471 18.4751 -8.17784 2.84217e-014 0 15.5538 -0.334341 -4.3747 -30.104 0 0 -1.33225 -0.052191 -0.548011 -24.4664 0 0 -1.7195 -0.066914 0.532614 9.26261 -1.42109e-014 -2.84217e-014 1.68497 13.2483 -1.10532 1.77636e-015 -35.4897 2.84217e-014 -0.7106 -7.67237 -0.044444 0 -38.2023 0 2.45324 -2.86264 14.1144 -7.10543e-015 -6.0207 13.8939 -4.96962e-016 5.96354e-016 3.18055e-015 -9.26261 0 0 -3.8205 3.86372 -0.079021 -3.55271e-015 -35.4897 -2.84217e-014 -1.01789 4.64546 -4.94812 7.10543e-015 -38.2023 0 2.55829 -5.68084 4.05107 0 -6.0207 13.8939 1.98785e-016 0 -0 
0 0 0 0 0 -0 -5.71423 76.0112 -194.897 0.26641 -1.256 -3.14068 -3.55271e-015 7.59534 0 0.0518227 -5.37113 0.235389 -1.77636e-015 23.5015 0 1.38998 -0.368078 0.234184 0 23.405 2.12773 -3.57301 26.1013 -3.36762 0 12.9677 -1.85252 1.23962 -1.20948 -3.65653 3.62206 22.4732 -0.132728 14.0525 2.02419 14.1823 8.17784 0 0 -18.6977 1.4625 -3.79424 30.104 2.84217e-014 -2.84217e-014 0.885173 0.998382 1.41508 24.4664 0 0 3.32694 0.950518 -1.2723 -3.6336 22.4732 -0.132728 -10.4448 -0.741027 18.4609 -8.17784 0 -2.84217e-014 15.5634 -0.328138 -4.37708 -30.104 0 2.84217e-014 -1.33386 -0.046887 -0.548011 -24.4664 -2.84217e-014 0 -1.7406 -0.060912 0.522057 9.26261 -1.42109e-014 0 1.68235 13.2425 -1.09438 0 -35.4897 0 -0.70377 -7.66989 -0.094908 0 -38.2023 0 2.4218 -2.856 14.1426 0 -6.0207 13.8939 -6.70898e-016 -3.97569e-016 -1.59028e-015 -9.26261 0 2.84217e-014 -3.81998 3.85733 -0.086911 0 -35.4897 2.84217e-014 -1.01854 4.64893 -4.93643 0 -38.2023 0 2.51297 -5.67918 4.03725 0 -6.0207 13.8939 -1.06847e-015 0 -7.95139e-016 
0 0 0 0 0 -0 -5.71268 76.0112 -194.897 0.26641 -1.256 -3.14068 -1.77636e-015 7.59534 0 0.0516722 -5.37323 0.235389 0 23.5015 0 1.39018 -0.363214 0.235401 -1.77636e-015 23.405 2.12773 -3.55342 26.0996 -3.36758 0 12.9677 -1.85252 1.21855 -1.23237 -3.65622 3.62206 22.4732 -0.132728 14.052 2.02046 14.1822 8.17784 0 2.84217e-014 -18.6974 1.47049 -3.78381 30.104 0 0 0.889513 0.982793 1.416 24.4664 2.84217e-014 0 3.32706 0.934586 -1.28278 -3.6336 22.4732 -0.132728 -10.4425 -0.747945 18.4656 -8.17784 0 0 15.5745 -0.311424 -4.37695 -30.104 -2.84217e-014 0 -1.34543 -0.059185 -0.548011 -24.4664 0 2.84217e-014 -1.7831 -0.073439 0.512762 9.26261 -1.42109e-014 0 1.68246 13.2341 -1.09556 0 -35.4897 0 -0.718805 -7.64833 -0.057533 -1.77636e-015 -38.2023 0 2.42282 -2.88292 14.1194 0 -6.0207 13.8939 -1.06847e-015 3.97569e-016 1.59028e-015 -9.26261 -1.42109e-014 2.84217e-014 -3.82134 3.8595 -0.066675 -3.55271e-015 -35.4897 0 -1.01239 4.6415 -5.0197 7.10543e-015 -38.2023 2.84217e-014 2.53303 -5.66849 4.12356 0 -6.0207 13.8939 1.73937e-016 1.98785e-016 -0 
0 0 0 0 0 -0 -5.71111 76.0112 -194.897 0.266543 -1.25357 -3.14068 0 7.59534 0 0.0515811 -5.37547 0.23539 1.77636e-015 23.5015 0 1.39029 -0.357866 0.236569 -1.77636e-015 23.405 2.12773 -3.56656 26.0965 -3.36749 0 12.9677 -1.85252 1.23805 -1.23633 -3.65585 3.62206 22.4732 -0.132728 14.051 2.0186 14.1828 8.17784 -2.84217e-014 0 -18.697 1.47415 -3.79033 30.104 0 -2.84217e-014 0.901663 0.989534 1.41894 24.4664 0 0 3.25362 0.941118 -1.3104 -3.6336 22.4732 -0.132728 -10.4519 -0.719333 18.4554 -8.17784 0 0 15.575 -0.325055 -4.3635 -30.104 -2.84217e-014 2.84217e-014 -1.34349 -0.059924 -0.548011 -24.4664 0 -2.84217e-014 -1.79918 -0.074667 0.501161 9.26261 -1.42109e-014 0 1.66991 13.2346 -1.09349 0 -35.4897 0 -0.707612 -7.66314 -0.064074 0 -38.2023 0 2.44244 -2.84651 14.1081 0 -6.0207 13.8939 -4.72114e-016 -3.97569e-016 -1.59028e-015 -9.26261 0 0 -3.81931 3.84836 -0.097141 -3.55271e-015 -35.4897 -2.84217e-014 -1.01966 4.66641 -4.90441 0 -38.2023 0 2.54919 -5.67632 4.02133 0 -6.0207 13.8939 1.73937e-016 3.97569e-016 -7.95139e-016 
0 0 0 0 0 -0 -5.70952 76.0112 -194.897 0.267019 -1.24532 -3.13962 0 7.59534 0 0.0515455 -5.37765 0.235391 0 23.5015 2.84217e-014 1.39035 -0.356069 0.237612 -1.77636e-015 23.405 2.12773 -3.56033 26.0861 -3.36719 0 12.9677 -1.85252 1.23348 -1.21438 -3.65545 3.62206 22.4732 -0.132728 14.0474 2.02833 14.1849 8.17784 2.84217e-014 0 -18.6932 1.49256 -3.79022 30.104 0 0 0.904957 0.963862 1.42221 24.4664 0 0 3.23838 0.91565 -1.30928 -3.6336 22.4732 -0.132728 -10.4515 -0.719101 18.4554 -8.17784 0 2.84217e-014 15.5754 -0.314205 -4.3598 -30.104 2.84217e-014 -2.84217e-014 -1.33969 -0.0597677 -0.554145 -24.4664 0 2.84217e-014 -1.83172 -0.0747135 0.504293 9.26261 0 0 1.66921 13.2295 -1.09236 0 -35.4897 0 -0.699707 -7.66782 -0.050192 1.77636e-015 -38.2023 0 2.43887 -2.8569 14.1063 0 -6.0207 13.8939 -7.45443e-017 -1.98785e-016 -1.59028e-015 -9.26261 0 2.84217e-014 -3.82085 3.83898 -0.074386 0 -35.4897 2.84217e-014 -1.01513 4.66667 -4.95942 0 -38.2023 0 2.50133 -5.65839 4.05625 0 -6.0207 13.8939 -4.96962e-017 -7.95139e-016 1.59028e-015 
